{"title":"Terminator Genisys 2015 HC HDRip x264-MenaceIISociety","uid":12207338,"size":971927910,"categoryP":"video","categoryS":"movies","magnet":"?xt=urn:btih:9fc4fd8690a86e169b12039f9ab76ddbeb312757&amp;dn=Terminator+Genisys+2015+HC+HDRip+x264-MenaceIISociety&amp;tr=udp%3A%2F%2Ftracker.openbittorrent.com%3A80&amp;tr=udp%3A%2F%2Fopen.demonii.com%3A1337&amp;tr=udp%3A%2F%2Ftracker.coppersurfer.tk%3A6969&amp;tr=udp%3A%2F%2Fexodus.desync.com%3A6969","seeders":2,"leechers":2,"uploader":"makintos13","files":3,"time":1439009150,"description":"\nSCREENS:\n &lt;a href=&quot;\nhttp://imgmak.com/lR&quot; rel=&quot;nofollow&quot; target=&quot;_NEW&quot;&gt;\nhttp://imgmak.com/lR&lt;/a&gt;\n &lt;a href=&quot;\nhttp://imgmak.com/lb&quot; rel=&quot;nofollow&quot; target=&quot;_NEW&quot;&gt;\nhttp://imgmak.com/lb&lt;/a&gt;\n &lt;a href=&quot;\nhttp://imgmak.com/lx&quot; rel=&quot;nofollow&quot; target=&quot;_NEW&quot;&gt;\nhttp://imgmak.com/lx&lt;/a&gt;\n &lt;a href=&quot;\nhttp://imgmak.com/lz&quot; rel=&quot;nofollow&quot; target=&quot;_NEW&quot;&gt;\nhttp://imgmak.com/lz&lt;/a&gt;\n &lt;a href=&quot;\nhttp://imgmak.com/l7&quot; rel=&quot;nofollow&quot; target=&quot;_NEW&quot;&gt;\nhttp://imgmak.com/l7&lt;/a&gt;\n &lt;a href=&quot;\nhttp://imgmak.com/lk&quot; rel=&quot;nofollow&quot; target=&quot;_NEW&quot;&gt;\nhttp://imgmak.com/lk&lt;/a&gt;\n &lt;a href=&quot;\nhttp://imgmak.com/lm&quot; rel=&quot;nofollow&quot; target=&quot;_NEW&quot;&gt;\nhttp://imgmak.com/lm&lt;/a&gt;\n &lt;a href=&quot;\nhttp://imgmak.com/lu&quot; rel=&quot;nofollow&quot; target=&quot;_NEW&quot;&gt;\nhttp://imgmak.com/lu&lt;/a&gt;\n\n::::::;\n\nGeneral\nComplete name : Terminator.Genisys.2015.HC.HDRip.x264-MenaceIISociety.mp4\nFormat : MPEG-4\nFormat profile : Base Media\nCodec ID : isom\nFile size : 916 MiB\nDuration : 2h 0mn\nOverall bit rate mode : Variable\nOverall bit rate : 1 063 Kbps\nEncoded date : UTC 2015-08-08 00:53:29\nTagged date : UTC 2015-08-08 00:53:29\n\nVideo\nID : 1\nFormat : AVC\nFormat/Info : Advanced Video Codec\nFormat profile : &lt;a class=&quot;__cf_email__&quot; href=&quot;/cdn-cgi/l/email-protection&quot; data-cfemail=&quot;a7efcec0cfe7eb938996&quot;&gt;[email&amp;#160;protected]&lt;/a&gt;&lt;script data-cfhash='f9e31' type=&quot;text/javascript&quot;&gt;\n/* &lt;![CDATA[ */!function(){try{var t=&quot;currentScript&quot;in document?document.currentScript:function(){for(var t=document.getElementsByTagName(&quot;script&quot;),e=t.length;e--;)if(t[e].getAttribute(&quot;data-cfhash&quot;))return t[e]}();if(t&amp;&amp;t.previousSibling){var e,r,n,i,c=t.previousSibling,a=c.getAttribute(&quot;data-cfemail&quot;);if(a){for(e=&quot;&quot;,r=parseInt(a.substr(0,2),16),n=2;a.length-n;n+=2)i=parseInt(a.substr(n,2),16)^r,e+=String.fromCharCode(i);e=document.createTextNode(e),c.parentNode.replaceChild(e,c)}t.parentNode.removeChild(t);}}catch(u){}}()/* ]]&gt; */&lt;/script&gt;\nFormat settings, CABAC : Yes\nFormat settings, ReFrames : 3 frames\nCodec ID : avc1\nCodec ID/Info : Advanced Video Coding\nDuration : 2h 0mn\nBit rate mode : Variable\nBit rate : 969 Kbps\nMaximum bit rate : 40.0 Mbps\nWidth : 720 pixels\nHeight : 304 pixels\nDisplay aspect ratio : 2.35:1\nFrame rate mode : Constant\nFrame rate : 30.000 fps\nColor space : YUV\nChroma subsampling : 4:2:0\nBit depth : 8 bits\nScan type : Progressive\nBits/(Pixel*Frame) : 0.148\nStream size : 835 MiB (91%)\nWriting library : x264 core 148 r2579 73ae2d1\n\nAudio\nID : 2\nFormat : AAC\nFormat/Info : Advanced Audio Codec\nFormat profile : LC\nCodec ID : 40\nDuration : 2h 0mn\nBit rate mode : Variable\nBit rate : 89.8 Kbps\nMaximum bit rate : 119 Kbps\nChannel(s) : 2 channels\nChannel positions : Front: L R\nSampling rate : 48.0 KHz\nCompression mode : Lossy\nStream size : 77.4 MiB (8%)\nLanguage : English\nEncoded date : UTC 2015-08-07 22:54:29\nTagged date : UTC 2015-08-08 00:54:1","torrent":{"xt":"urn:btih:9fc4fd8690a86e169b12039f9ab76ddbeb312757","amp;dn":"Terminator+Genisys+2015+HC+HDRip+x264-MenaceIISociety","amp;tr":["udp%3A%2F%2Ftracker.openbittorrent.com%3A80","udp%3A%2F%2Fopen.demonii.com%3A1337","udp%3A%2F%2Ftracker.coppersurfer.tk%3A6969","udp%3A%2F%2Fexodus.desync.com%3A6969"],"infoHash":"9fc4fd8690a86e169b12039f9ab76ddbeb312757","infoHashBuffer":{"type":"Buffer","data":[159,196,253,134,144,168,110,22,155,18,3,159,154,183,109,219,235,49,39,87]},"announce":[],"urlList":[]}}